<?xml version="1.0" encoding="utf-8"?>
<!-- Generator: Adobe Illustrator 27.2.0, SVG Export Plug-In . SVG Version: 6.00 Build 0)  -->
<svg version="1.1" id="Group_5804" xmlns="http://www.w3.org/2000/svg" xmlns:xlink="http://www.w3.org/1999/xlink" x="0px" y="0px"
	 viewBox="0 0 332.1 75.8" style="enable-background:new 0 0 332.1 75.8;" xml:space="preserve">
<style type="text/css">
	.st0{fill:none;}
	.st1{fill:#3993FF;}
	.st2{fill:#97A2AF;}
	.st3{fill:#FFFFFF;}
</style>
<rect class="st0" width="332.1" height="75.8"/>
<g>
	<g id="Group_5802_00000041295486513505650440000008918636959722272648_">
		<path class="st1" d="M86.3,23.6C83.1,12,72.5,3.9,60.4,3.9c-2.2,0-4.5,0.3-6.7,0.8c-4.9,1.3-9.4,3.9-12.8,7.6c-0.2,0-0.4,0-0.6,0
			c-0.1,0-0.2,0-0.3,0h-0.2c-0.1,0-0.2,0-0.3,0l0,0l0,0c-6.2,0.4-11.6,4.5-13.5,10.4c-8.3,1.6-14.2,8.8-14.2,17.3l0.8,0.8H16
			l0.8-0.8c0-6.6,4.9-11.9,11.4-12.5l1.2-0.1l0,0c2,0,3.9,0.5,5.6,1.3l1.1-0.4l1.5-3l-0.4-1.1c-1.8-0.9-3.7-1.5-5.7-1.7
			c1.7-3,4.9-5,8.4-5.2l0,0c2.5,0,4.9,1,6.8,2.7l1.2-0.1l2.1-2.5v-1.1c-1-1-2.1-1.8-3.3-2.5c3.9-3.2,8.7-4.9,13.8-4.9
			c6.1,0,12,2.6,16.1,7.1c1.7,1.9,3.1,4,4.1,6.4c-0.3,0-0.6,0-0.9,0c-1.5,0-3,0.2-4.4,0.6l-0.6,1l0.8,3.3l1,0.6
			c1-0.3,2.1-0.4,3.2-0.4c1.2,0,2.5,0.2,3.7,0.5h0.1c3.2,1,5.9,3.2,7.4,6.2c1.6,3,1.9,6.4,0.9,9.6c-1.6,5.3-6.5,8.9-12,8.9H57.8
			L57,53.5v3.4l0.8,0.8h21.8c9.7,0,17.6-7.9,17.7-17.6C97.3,32.8,93,26.3,86.3,23.6z"/>
		<g>
			<path class="st2" d="M12.8,50.1v-3.4c0-0.5-0.4-0.8-0.8-0.8H5.3c-0.5,0-0.8,0.4-0.8,0.8v3.4c0,0.5,0.4,0.8,0.8,0.8H12
				C12.5,50.9,12.8,50.6,12.8,50.1z"/>
			<path class="st2" d="M27.6,45.9H17.5c-0.5,0-0.8,0.4-0.8,0.8v3.4c0,0.5,0.4,0.8,0.8,0.8h10.1c0.5,0,0.8-0.4,0.8-0.8v-3.4
				C28.4,46.3,28,45.9,27.6,45.9z"/>
			<path class="st2" d="M52,34.1L52,34.1h-0.9c-0.5,0-0.8,0.4-0.8,0.8v3.4c0,0.5,0.4,0.8,0.8,0.8h0.8c1.9,0,3.4,1.5,3.4,3.4
				s-1.5,3.4-3.4,3.4h-19c-0.5,0-0.8,0.4-0.8,0.8v3.4c0,0.5,0.4,0.8,0.8,0.8h19c4.6,0,8.4-3.8,8.4-8.4C60.4,37.9,56.6,34.1,52,34.1z
				"/>
			<path class="st2" d="M13.7,55.1h-3.4c-0.5,0-0.8,0.4-0.8,0.8v3.4c0,0.5,0.4,0.8,0.8,0.8h3.4c0.5,0,0.8-0.4,0.8-0.8V56
				C14.5,55.5,14.1,55.1,13.7,55.1z"/>
			<path class="st2" d="M25.9,55.1h-6.7c-0.5,0-0.8,0.4-0.8,0.8v3.4c0,0.5,0.4,0.8,0.8,0.8h6.7c0.5,0,0.8-0.4,0.8-0.8V56
				C26.7,55.5,26.4,55.1,25.9,55.1z"/>
			<path class="st2" d="M40.2,55.1L40.2,55.1H31c-0.5,0-0.8,0.4-0.8,0.8v3.4c0,0.5,0.4,0.8,0.8,0.8h9.2c1.9,0,3.4,1.5,3.4,3.4
				c0,1.9-1.5,3.4-3.4,3.4h-0.8c-0.5,0-0.8,0.4-0.8,0.8v3.4c0,0.5,0.4,0.8,0.8,0.8h0.8c4.6,0,8.4-3.8,8.4-8.4S44.8,55.1,40.2,55.1z"
				/>
		</g>
		<path id="Path_3274_00000100354802845451860850000015646229010248823984_" class="st3" d="M326.5,30.9v5.4h-5.4v3.6
			c0,3,2,4.5,4.8,4.5c0.3,0,0.6,0,0.9-0.1c0.3,0,0.5-0.1,0.8-0.1v5.4c-0.3,0-0.5,0.1-0.8,0.2c-0.4,0-0.7,0.1-1.1,0
			c-5.8,0-10.4-4-10.4-9.8V25.6h5.8v5.3L326.5,30.9z M302.2,44l-4.1,5.6h-6.4l7.3-9.9l-6.9-9.4h6.4l3.7,5l3.7-5h6.4l-6.8,9.4
			l7.2,9.9h-6.4L302.2,44z M288.3,43.5v5.4c-2.1,0.5-4.4,0.8-6.6,0.8c-6.1,0-10.7-3.6-10.7-9.8c0-6.1,4.4-9.9,10.2-9.9
			c4,0,8.6,1.9,8.6,6.4s-4.9,6.1-8.6,6.1c-1.4,0-2.9-0.4-4.2-0.9c0.8,2.2,3.1,2.5,5.1,2.5c1,0,2.1-0.1,3.1-0.2
			C286.3,44,287.3,43.8,288.3,43.5 M277.3,37.6c0.6,0.2,1.3,0.3,1.9,0.4c0.7,0.1,1.3,0.2,2,0.2c0.8,0,2.7-0.2,2.7-1.3
			c0-1.2-1.7-1.2-2.5-1.2C279.7,35.7,278.3,36.1,277.3,37.6 M267.8,39.9v9.7H262v-9.7c0-2.7-1.2-4.5-4.1-4.5c-2.8,0-4.1,1.9-4.1,4.5
			v9.7H248v-9.7c0-5.9,4.1-9.8,9.8-9.8C263.9,30.1,267.8,34.2,267.8,39.9 M227.5,48.9v-5.4c2.7,0.7,5.6,1,8.4,0.9
			c0.8,0,1.6,0,2.4-0.2c0.5-0.1,0.8-0.3,0.8-0.5c0-0.1,0-0.2-0.1-0.3c-0.5-0.4-1.1-0.6-1.7-0.7c-0.5-0.1-1.2-0.3-2-0.4
			c-0.7-0.1-1.4-0.3-2.3-0.5c-3-0.7-5.3-2.4-5.3-5.6c0-4.8,4.7-6.2,8.6-6.2c2.5,0,5,0.3,7.4,0.8v5.4c-2.5-0.7-5.1-1-7.7-0.9
			c-0.7,0-1.4,0-2.1,0.2c-0.4,0.1-0.7,0.3-0.7,0.5c0,0.3,0.3,0.6,1,0.7c0.7,0.2,1.6,0.3,2.7,0.5c1,0.2,2,0.4,2.9,0.6
			c2.9,0.7,4.9,2.3,4.9,5.4c0,5.2-5.2,6.4-9.4,6.4C232.6,49.8,230,49.5,227.5,48.9z M217.9,30.3h5.8V40c0,5.9-4.1,9.8-9.8,9.8
			c-5.9,0-9.8-4.1-9.8-9.8v-9.7h5.8V40c0,2.6,1.3,4.5,4.1,4.5s4.1-1.9,4.1-4.5v-9.7H217.9z M180.4,22.5h5.8v9.7
			c1.3-1.4,3.1-2.2,5.1-2.1c5.6,0,9.6,4.5,9.6,9.9c0,6.1-4.5,9.8-10.3,9.8c-6,0-10.2-3.9-10.2-9.8L180.4,22.5z M186.2,39.9
			c0,2.9,1.4,4.5,4.3,4.5c0.7,0,1.5-0.1,2.1-0.4c1.1-0.4,1.9-1.3,2.2-2.4c0.3-1.1,0.3-2.3,0-3.5c-0.3-1.1-1.2-2-2.2-2.4
			c-0.7-0.2-1.4-0.4-2.1-0.3C187.6,35.4,186.2,37.1,186.2,39.9 M176.1,39.1v10.4h-5.8V39.1c0-2.2-1-3.7-3.4-3.7
			c-2.3,0-3.4,1.5-3.4,3.7v10.4h-5.8V39.1c0-2.2-1.1-3.7-3.4-3.7c-2.3,0-3.3,1.5-3.3,3.7v10.4h-5.8V39.1c0-5.6,3.8-9.1,9.2-9.1
			c2.6-0.1,5,1.3,6.3,3.6c1.2-2.3,3.7-3.7,6.3-3.6C172.4,30.1,176.1,33.7,176.1,39.1 M137.5,28.4c-1.8,0.1-3.3-1.3-3.4-3.1
			c0-0.1,0-0.2,0-0.3c-0.1-1.7,1.3-3.2,3-3.3c0.1,0,0.2,0,0.3,0c1.7-0.1,3.2,1.2,3.3,2.9c0,0.1,0,0.3,0,0.4c0.1,1.7-1.1,3.2-2.9,3.4
			C137.8,28.5,137.6,28.5,137.5,28.4 M134.6,30.3h5.8v19.3h-5.8V30.3z M130.4,39.9v9.7h-5.8v-9.7c0-2.7-1.2-4.5-4.1-4.5
			c-2.8,0-4.1,1.9-4.1,4.5v9.7h-5.8v-9.7c0-5.9,4.1-9.8,9.8-9.8C126.6,30.1,130.4,34.2,130.4,39.9"/>
	</g>
</g>
</svg>
