<svg xmlns="http://www.w3.org/2000/svg" width="194" height="60" viewBox="0 0 194 60" fill="none"><g clip-path="url(#clip0_3543_28808)"><path fill-rule="evenodd" clip-rule="evenodd" d="M3.75354 12.9647C3.75354 8.01362 7.82655 4 12.8509 4H47.4206C52.445 4 56.518 8.01362 56.518 12.9647V41.9375C56.518 47.0597 49.9403 49.2827 46.7502 45.2387L36.7768 32.5962V47.9269C36.7768 52.3829 33.1111 55.9951 28.5893 55.9951H12.8509C7.82655 55.9951 3.75354 51.9815 3.75354 47.0305V12.9647ZM12.8509 11.1717C11.846 11.1717 11.0314 11.9745 11.0314 12.9647V47.0305C11.0314 48.0206 11.846 48.8234 12.8509 48.8234H28.8622C29.3646 48.8234 29.4989 48.422 29.4989 47.9269V27.3685C29.4989 22.2464 36.0766 20.0233 39.2668 24.0673L49.2401 36.7098V12.9647C49.2401 11.9745 49.3353 11.1717 48.3304 11.1717H12.8509Z" fill="#191919"></path><path d="M92.7041 19.315V32.9147L79.3224 19.315H72.3575V41.5575H78.7098V26.941L93.2845 41.5575H99.0563V19.315H92.7041Z" fill="#1A1A1A"></path><path d="M110.832 36.6005V32.6604H125.051V27.926H110.832V24.2719H128.083V19.315H104.351V41.5575H128.438V36.6005H110.832Z" fill="#1A1A1A"></path><path d="M145.317 42.2882C154.249 42.2882 160.054 37.9669 160.054 30.4361C160.054 22.9056 154.249 18.5842 145.317 18.5842C136.385 18.5842 130.614 22.9056 130.614 30.4361C130.614 37.9669 136.385 42.2882 145.317 42.2882ZM145.317 37.0136C140.352 37.0136 137.288 34.6304 137.288 30.4361C137.288 26.242 140.384 23.8588 145.317 23.8588C150.283 23.8588 153.346 26.242 153.346 30.4361C153.346 34.6304 150.283 37.0136 145.317 37.0136Z" fill="#1A1A1A"></path><path d="M184.4 19.315V32.9147L171.019 19.315H164.054V41.5575H170.406V26.941L184.981 41.5575H190.752V19.315H184.4Z" fill="#1A1A1A"></path></g><defs><clipPath id="clip0_3543_28808"><rect width="187" height="53" fill="white" transform="translate(3.75354 4)"></rect></clipPath></defs></svg>